HIERARCHY
ROOT pelvis
{
  OFFSET 0 100 0
  CHANNELS 6 Xposition Yposition Zposition Zrotation Xrotation Yrotation
  JOINT pelvis_right_femur
  {
    OFFSET -10.78128 -3.44521 -0.5502486
    CHANNELS 3 Zrotation Xrotation Yrotation
    JOINT right_femur_tibia
    {
      OFFSET -0.8047443 -44.0398 -0.1307829
      CHANNELS 3 Zrotation Xrotation Yrotation
      JOINT right_tibia_foot
      {
        OFFSET 3.006224 -47.83518 -5
        CHANNELS 3 Zrotation Xrotation Yrotation
        End Site
        {
          OFFSET 0 -5 15
        }
      }
    }
  }
  JOINT pelvis_left_femur
  {
    OFFSET 10.78128 -3.44521 -0.5502486
    CHANNELS 3 Zrotation Xrotation Yrotation
    JOINT left_femur_tibia
    {
      OFFSET 0.8047443 -44.0398 -0.1307829
      CHANNELS 3 Zrotation Xrotation Yrotation
      JOINT left_tibia_foot
      {
        OFFSET -4.370144 -48.10324 -4.275266
        CHANNELS 3 Zrotation Xrotation Yrotation
        End Site
        {
          OFFSET 0 -5 15
        }
      }
    }
  }
  JOINT pelvis_spine1
  {
    OFFSET 0 6.468898 -3.129235
    CHANNELS 3 Zrotation Xrotation Yrotation
    JOINT spine1
    {
      OFFSET 0 23.15396 4.99043
      CHANNELS 3 Zrotation Xrotation Yrotation
      JOINT spine2
      {
        OFFSET 0 20.79997 -5.064912
        CHANNELS 3 Zrotation Xrotation Yrotation
        JOINT neck
        {
          OFFSET 0 14.38658 9.616178
          CHANNELS 3 Zrotation Xrotation Yrotation
          End Site
          {
            OFFSET 0 20 0
          }
        }
      }
      JOINT right_manubrium
      {
        OFFSET -5.722621 16.35077 3.967754
        CHANNELS 3 Zrotation Xrotation Yrotation
        JOINT right_clavicle
        {
          OFFSET -13.16364 1.694482 -4.693211
          CHANNELS 3 Zrotation Xrotation Yrotation
          JOINT right_humerus
          {
            OFFSET -28.5034 -0.3100689 -2.792744
            CHANNELS 3 Zrotation Xrotation Yrotation
            JOINT right_radius
            {
              OFFSET -25.15693 0.02248979 -1.271978
              CHANNELS 3 Zrotation Xrotation Yrotation
              End Site
              {
                OFFSET -15 0 0
              }
            }
          }
        }
      }
      JOINT left_manubrium
      {
        OFFSET 5.722621 16.35077 3.967754
        CHANNELS 3 Zrotation Xrotation Yrotation
        JOINT left_clavicle
        {
          OFFSET 13.16364 1.694482 -4.693211
          CHANNELS 3 Zrotation Xrotation Yrotation
          JOINT left_humerus
          {
            OFFSET 29.39168 -1.063119 -2.237045
            CHANNELS 3 Zrotation Xrotation Yrotation
            JOINT left_radius
            {
              OFFSET 24.59957 -0.9528479 0.9047498
              CHANNELS 3 Zrotation Xrotation Yrotation
              End Site
              {
                OFFSET 15 -0 -0
              }
            }
          }
        }
      }
    }
  }
}
MOTION
Frames: 9
Frame Time: 0.0416666666667
0 103.5113 0 0.9587216 -1.837889 0.0485511 3.413972 -15.73514 8.206892 -0 36.40198 -0 -6.349484 -16.1284 -4.313274 -6.678815 11.74457 -23.00232 -0 4.836327 -0 7.675415 -17.00963 25.61473 -2.11073 -2.805313 4.481062 3.484078 6.785315 -8.533809 0.6979824 19.67467 8.811233 4.354019 -27.27334 9.909768 5.976265 -18.32919 11.78378 81.61536 33.46862 -15.37234 -0 0 19.22883 -7.705938 10.44228 4.144456 9.148076 -21.12717 5.152758 -95.41246 21.16325 21.54022 0 0 -9.934131 11.91526 18.90699 -2.911576
0.2214789 103.3629 1.607759 0.802361 -1.280559 0.05611099 3.610035 -18.6698 8.235385 -0 36.21717 -0 -5.904353 -14.83503 -4.012705 -6.71732 12.78912 -23.08475 -0 5.437689 -0 6.01452 -18.92913 25.13209 -2.004342 -2.676216 4.122402 3.715028 6.780981 -8.864889 0.6265793 19.28645 9.199945 4.58295 -27.86425 10.13822 5.888774 -18.19499 11.86901 82.29252 33.26376 -16.24022 -0 0 18.50775 -7.71957 10.45373 4.287424 9.398601 -21.39669 5.098922 -94.73642 20.61681 20.48837 0 0 -11.19651 12.18386 18.33009 -3.223915
0.4514283 103.114 3.468941 0.3723693 -0.2836829 0.04601272 4.40551 -23.3279 7.875468 -0 33.48681 -0 -5.642679 -12.82662 -3.340648 -6.583898 13.48582 -22.26684 -0 6.121254 -0 5.966507 -20.40256 24.56447 -2.019341 -2.428732 3.969455 3.680031 7.073383 -8.972516 0.4794402 19.2241 9.316446 4.760226 -27.68013 9.857962 5.760801 -17.95242 11.95864 83.06298 33.53524 -16.92784 -0 0 17.33038 -8.899797 10.72195 5.122169 9.241043 -21.64262 4.479007 -93.82211 20.44909 19.7225 0 0 -12.52161 11.51768 17.29044 -2.380317
0.7068861 102.7653 5.63483 0.01333835 1.126583 0.07438122 5.219745 -27.77685 7.81796 -0 30.2142 -0 -4.969682 -11.20423 -2.691914 -6.515849 13.80861 -21.40412 -0 6.336971 -0 6.247931 -21.5991 23.97864 -1.98722 -2.280792 3.768342 3.754563 7.187846 -9.142159 0.3997744 19.06374 9.492658 4.904761 -27.79922 9.822064 5.681105 -17.78841 12.02351 83.62539 33.5391 -17.53717 -0 0 16.57887 -9.378864 10.8413 5.504349 9.260369 -21.84268 4.200577 -93.2021 20.18214 19.00516 0 0 -13.52264 11.32585 16.67412 -2.130045
0.9895639 102.304 8.252656 -0.3805837 2.630587 0.1911651 6.123403 -31.79912 7.607818 -0 26.02663 -0 -4.550101 -9.420388 -2.043057 -6.390836 13.95085 -20.23233 -0 6.671821 -0 6.841853 -22.32961 23.16473 -1.963354 -2.111933 3.572216 3.816662 7.354407 -9.299575 0.3186963 18.93415 9.629462 5.031932 -27.83945 9.735456 5.603248 -17.59626 12.0914 84.23658 33.58053 -18.18429 -0 0 15.70901 -9.971489 10.98624 5.962923 9.222477 -22.04951 3.818623 -92.5068 19.92099 18.24848 0 0 -14.61155 11.07203 15.96675 -1.778351
1.277899 101.7493 11.42619 -0.79576 3.937077 0.4458398 6.946501 -34.75747 7.223957 -0 21.93834 -0 -4.564719 -7.534206 -1.524738 -6.178497 14.13522 -18.97749 -0 7.527726 -0 6.857904 -22.68498 21.89132 -1.939343 -1.973752 3.397528 3.879868 7.48981 -9.440873 0.2579912 18.81957 9.741894 5.13137 -27.88254 9.675753 5.543811 -17.42858 12.1467 84.75151 33.58897 -18.74578 -0 0 14.97803 -10.42553 11.10387 6.319707 9.196935 -22.22659 3.503199 -91.92185 19.68419 17.58447 0 0 -15.5387 10.89387 15.38796 -1.520024
1.541232 101.1551 15.23099 -1.261613 4.787967 0.8649919 7.649045 -36.29159 6.602633 -0 18.53372 -0 -5.184257 -5.629314 -1.19329 -5.822536 14.43076 -17.68903 -0 9.472528 -0 5.916649 -22.49756 20.00288 -1.925617 -1.839044 3.253729 3.920224 7.643701 -9.551609 0.2040168 18.7458 9.808361 5.203803 -27.84905 9.58161 5.49151 -17.26224 12.1952 85.22834 33.61556 -19.25248 -0 0 14.26952 -10.91495 11.22845 6.687489 9.131893 -22.38317 3.155678 -91.36125 19.49293 16.98377 0 0 -16.39818 10.67522 14.82154 -1.202733
1.757272 100.6128 19.67978 -1.764763 5.031511 1.424355 8.213551 -36.23857 5.809743 -0 16.25678 -0 -6.313639 -3.925856 -1.058438 -5.319153 14.7235 -16.42447 -0 12.91833 -0 3.940242 -21.5885 17.56143 -1.924402 -1.717588 3.155325 3.930489 7.800223 -9.620317 0.1586774 18.72052 9.825218 5.245498 -27.73718 9.456039 5.446684 -17.11241 12.23291 85.62336 33.65271 -19.65344 -0 0 13.65194 -11.41724 11.3513 7.044778 9.031185 -22.50273 2.807984 -90.87492 19.37403 16.5057 0 0 -17.10511 10.40694 14.31469 -0.8263153
1.924937 100.2459 24.7235 -2.257088 4.655787 2.044194 8.670365 -34.65843 4.972516 -0 15.17464 -0 -7.712239 -2.649879 -1.083072 -4.705027 14.72274 -15.18104 -0 18.10111 -0 1.329421 -19.77044 14.87027 -1.939581 -1.603073 3.110529 3.900981 7.968394 -9.637641 0.1184791 18.75469 9.784031 5.254568 -27.5221 9.280633 5.404499 -16.97854 12.2606 85.93582 33.70585 -19.93558 -0 0 13.11741 -11.98331 11.47817 7.42275 8.877278 -22.57866 2.439816 -90.45404 19.34535 16.1637 0 0 -17.65364 10.0406 13.84586 -0.3331432
